# xmcd
#
# Track frame offsets: 
#        150
#        27033
#        45390
#        63573
#        80860
#        110072
#        127302
#        139599
#        158548
#
# Disc length: 2337 seconds
#
# Revision: 0
# Processed by: cddbd v1.5.2PL0 Copyright (c) Steve Scherf et al.
# Submitted via: ExactAudioCopyFreeDBPlugin 1.0
#
DISCID=79091f09
DTITLE=Forty-Fours  - Boogie Disease
DYEAR=2011
DGENRE=Blues
TTITLE0=Pull My Strings 
TTITLE1=So Low Down
TTITLE2=Take It Easy 
TTITLE3=Boogie Disease 
TTITLE4=Commit a Crime 
TTITLE5=Goin to the Church 
TTITLE6=Blowin Like Hell 
TTITLE7=Automatic 
TTITLE8=Johnny Cochino 
EXTD=
EXTT0=
EXTT1=
EXTT2=
EXTT3=
EXTT4=
EXTT5=
EXTT6=
EXTT7=
EXTT8=
PLAYORDER=
